<svg width="61" height="59" viewBox="0 0 61 59" fill="none" xmlns="http://www.w3.org/2000/svg">
<path d="M53.1355 45.4792C53.1355 48.8741 50.3438 51.625 46.8986 51.625H14.4665C11.0225 51.625 8.22958 48.8741 8.22958 45.4792V13.5208C8.22958 10.1259 11.0225 7.375 14.4665 7.375H46.8986C50.3438 7.375 53.1355 10.1259 53.1355 13.5208V45.4792Z" fill="#0A3D2A"/>
<path d="M45.5726 22.1753C45.63 21.9897 45.6574 21.8176 45.6499 21.664C45.6312 21.219 45.3206 20.8958 44.5896 20.8958H41.324C40.4995 20.8958 40.119 21.3874 39.897 21.8803C39.897 21.8803 37.8612 26.0091 35.5149 28.7317C34.754 29.5196 34.3673 29.4999 33.9557 29.4999C33.7349 29.4999 33.1773 29.2369 33.1773 28.5154V22.1421C33.1773 21.2891 32.9615 20.8958 32.2642 20.8958H26.4651C25.9574 20.8958 25.693 21.2891 25.693 21.6836C25.693 22.5035 26.8131 22.7002 26.9404 24.9975V29.4508C26.9404 30.5324 26.7495 30.7291 26.3379 30.7291C25.2277 30.7291 23.0423 27.0416 21.5791 22.2085C21.2623 21.2571 20.9454 20.8958 20.1209 20.8958H16.8241C15.8723 20.8958 15.7139 21.3555 15.7139 21.8471C15.7139 22.7334 16.4623 27.5246 20.5475 33.0338C23.5101 37.0286 27.4131 39.3333 30.8684 39.3333C32.9615 39.3333 33.1761 38.8084 33.1761 37.9885V34.3355C33.1773 33.3509 33.4056 33.1874 34.0717 33.1874C34.5469 33.1874 35.5162 33.4947 37.3872 35.6458C39.5452 38.1262 39.9369 39.3333 41.1743 39.3333H44.44C45.1984 39.3333 45.6337 39.0198 45.6512 38.4114C45.6549 38.2565 45.6325 38.0832 45.5813 37.8902C45.3393 37.1822 44.2292 35.4515 42.8446 33.802C42.0774 32.8887 41.3202 31.9841 40.9722 31.4924C40.739 31.1716 40.6504 30.9454 40.6616 30.7291C40.6729 30.5017 40.7926 30.2854 40.9722 29.983C40.9398 29.983 45.1609 24.1432 45.5726 22.1753Z" fill="white"/>
</svg>
