<svg width="56" height="55" viewBox="0 0 56 55" fill="none" xmlns="http://www.w3.org/2000/svg">
<path d="M50.6481 23.0174H48.7771V22.9224H27.8726V32.0776H40.9995C39.0844 37.407 33.9384 41.2328 27.8726 41.2328C20.1763 41.2328 13.9363 35.0839 13.9363 27.5C13.9363 19.9161 20.1763 13.7672 27.8726 13.7672C31.4252 13.7672 34.6573 15.0879 37.1182 17.2451L43.688 10.7712C39.5397 6.96151 33.9907 4.61206 27.8726 4.61206C15.0454 4.61206 4.64545 14.8601 4.64545 27.5C4.64545 40.1399 15.0454 50.3879 27.8726 50.3879C40.6999 50.3879 51.0998 40.1399 51.0998 27.5C51.0998 25.9654 50.9396 24.4673 50.6481 23.0174Z" fill="#1E543F"/>
<path d="M7.32355 16.8468L14.9548 22.3617C17.0197 17.324 22.0206 13.7672 27.8726 13.7672C31.4252 13.7672 34.6573 15.0879 37.1182 17.2451L43.688 10.7712C39.5397 6.96151 33.9907 4.61206 27.8726 4.61206C18.9511 4.61206 11.2141 9.57531 7.32355 16.8468Z" fill="#396957"/>
<path d="M27.8726 50.388C33.8722 50.388 39.3236 48.1255 43.4453 44.4462L36.2565 38.4519C33.9245 40.1925 31.0257 41.2328 27.8726 41.2328C21.8312 41.2328 16.7015 37.4368 14.769 32.1394L7.19461 37.89C11.0387 45.3023 18.8454 50.388 27.8726 50.388Z" fill="#128D5F"/>
<path d="M50.6481 23.0173L50.6295 22.9224H48.7771H27.8727V32.0775H40.9995C40.0797 34.6376 38.4085 36.8451 36.253 38.453L36.2565 38.4507L43.4453 44.445C42.9367 44.9005 51.0998 38.9439 51.0998 27.4999C51.0998 25.9653 50.9396 24.4673 50.6481 23.0173Z" fill="#68B497"/>
</svg>
